<svg xmlns="http://www.w3.org/2000/svg" width="29.25" height="22.5" viewBox="0 0 29.25 22.5"><defs><style>.a{fill:silver;}</style></defs><g transform="translate(-3.375 -6.75)"><path class="a" d="M8.55,27.281H5.681A.282.282,0,0,1,5.4,27V9a.282.282,0,0,1,.281-.281H8.529a1.036,1.036,0,0,0,1.034-.984.924.924,0,0,0-.288-.7,1.256,1.256,0,0,0-.837-.281h-3.8A1.149,1.149,0,0,0,3.375,7.875v20.25a1.09,1.09,0,0,0,1.2,1.125H8.529a.947.947,0,0,0,.745-1.624A1.042,1.042,0,0,0,8.55,27.281Z"/><path class="a" d="M31.43,6.75H27.471a.986.986,0,0,0-.984,1.287.762.762,0,0,0,.056.134,1,1,0,0,0,.907.548h2.869A.282.282,0,0,1,30.6,9V26.993a.282.282,0,0,1-.281.281H27.471a1.025,1.025,0,0,0-1.034.977.985.985,0,0,0,.288.731.969.969,0,0,0,.724.267h3.98a1.1,1.1,0,0,0,1.2-1.153V7.875A1.09,1.09,0,0,0,31.43,6.75Z"/><path class="a" d="M8.613,12.375a.986.986,0,0,0-.984.977v9.288a.984.984,0,0,0,1.969,0V13.352A.986.986,0,0,0,8.613,12.375Z"/><path class="a" d="M27.387,23.625a.986.986,0,0,0,.984-.977v-9.3a.984.984,0,0,0-1.969,0v9.288A.987.987,0,0,0,27.387,23.625Z"/><path class="a" d="M22.957,10.125a1,1,0,0,0-.984,1.012V24.855a.985.985,0,1,0,1.969,0V11.137A1,1,0,0,0,22.957,10.125Z"/><path class="a" d="M13.043,10.125a1,1,0,0,0-.984,1.012V24.855a.985.985,0,1,0,1.969,0V11.137A1,1,0,0,0,13.043,10.125Z"/><path class="a" d="M18,11.25a1,1,0,0,0-.984,1v11.5a.984.984,0,1,0,1.969,0v-11.5A1,1,0,0,0,18,11.25Z"/></g></svg>