<svg xmlns="http://www.w3.org/2000/svg" width="34.072" height="22.596" viewBox="0 0 34.072 22.596"><defs><style>.a{fill:silver;stroke:silver;stroke-width:0.6px;}</style></defs><g transform="translate(-1.7 -13.7)"><path class="a" d="M34.994,36H2.478A.478.478,0,0,1,2,35.518V14.478A.478.478,0,0,1,2.478,14H34.994a.478.478,0,0,1,.478.478v21.04A.478.478,0,0,1,34.994,36ZM2.956,35.04H34.516V14.956H2.956Z"/><path class="a" d="M33.343,36.258H10.391a.478.478,0,0,1-.478-.478,1.435,1.435,0,0,0-1.435-1.435A.478.478,0,0,1,8,33.867V22.391a.478.478,0,0,1,.478-.478,1.435,1.435,0,0,0,1.435-1.435A.478.478,0,0,1,10.391,20H33.343a.478.478,0,0,1,.478.478,1.435,1.435,0,0,0,1.435,1.435.478.478,0,0,1,.478.478V33.867a.478.478,0,0,1-.478.478,1.435,1.435,0,0,0-1.435,1.435.478.478,0,0,1-.478.478ZM10.821,35.3H32.913a2.4,2.4,0,0,1,1.865-1.865V22.821a2.4,2.4,0,0,1-1.865-1.865H10.821a2.4,2.4,0,0,1-1.865,1.865V33.437A2.4,2.4,0,0,1,10.821,35.3Z" transform="translate(-3.131 -3.131)"/><path class="a" d="M34.391,36.607A2.394,2.394,0,0,1,32,34.216h.956a1.435,1.435,0,0,0,2.869,0c0-.838-.85-1.252-1.564-1.452C32.8,32.355,32,31.513,32,30.391a2.391,2.391,0,0,1,4.782,0h-.956a1.435,1.435,0,0,0-2.869,0c0,.673.526,1.161,1.564,1.452,1.458.409,2.262,1.251,2.262,2.373a2.394,2.394,0,0,1-2.391,2.391Z" transform="translate(-15.655 -7.306)"/><path class="a" d="M36,25h.956v1.913H36Z" transform="translate(-17.742 -5.74)"/><path class="a" d="M36,45h.956v1.913H36Z" transform="translate(-17.742 -16.177)"/><path class="a" d="M54.913,36.825a1.913,1.913,0,1,1,1.913-1.913A1.913,1.913,0,0,1,54.913,36.825Zm0-2.869a.956.956,0,1,0,.956.956A.956.956,0,0,0,54.913,33.956Z" transform="translate(-26.613 -9.915)"/><path class="a" d="M14.913,36.825a1.913,1.913,0,1,1,1.913-1.913A1.913,1.913,0,0,1,14.913,36.825Zm0-2.869a.956.956,0,1,0,.956.956A.956.956,0,0,0,14.913,33.956Z" transform="translate(-5.74 -9.915)"/></g></svg>