<svg xmlns="http://www.w3.org/2000/svg" width="50" height="50" viewBox="0 0 50 50"><defs><style>.a{fill:#e9e6fe;}.b{fill:silver;}.c{fill:#878787;}</style></defs><path class="a" d="M40.625,50H9.375A9.374,9.374,0,0,1,0,40.625V9.375A9.374,9.374,0,0,1,9.375,0h31.25A9.374,9.374,0,0,1,50,9.375v31.25A9.374,9.374,0,0,1,40.625,50Z"/><path class="b" d="M21.917,13.767A4.98,4.98,0,0,0,18.242,15.4,7.539,7.539,0,0,0,14.11,10.32a.781.781,0,1,0-.658,1.417A5.986,5.986,0,0,1,16.9,17.153v5.989a.781.781,0,1,0,1.562,0V18.778a3.452,3.452,0,0,1,3.448-3.448.781.781,0,0,0,0-1.562Z" transform="translate(7.312 5.764)"/><path class="c" d="M8.512,16A.523.523,0,0,0,8,16.524v9.633a.261.261,0,0,0,.261.261h2.47a.522.522,0,0,0,.5-.378l2.3-8.123a1.041,1.041,0,0,0-.645-1.263A12.152,12.152,0,0,0,8.513,16Z" transform="translate(4.5 9)"/><path class="c" d="M29.136,21.047c-2.083,0-6.25,2.638-8.333,2.638a9.6,9.6,0,0,1-4.428-1.6,32.481,32.481,0,0,0,4.427.52c1.62,0,2.083-.553,2.083-1.3,0-1.823-3.1-2.106-4.663-2.344a9.578,9.578,0,0,0-4.883-1.748c-.041.408-2.061,7.423-2.172,7.819,2.37,1.077,6.452,2.784,8.594,2.784,3.125,0,11.458-4.167,11.458-5.208S30.176,21.047,29.136,21.047Z" transform="translate(6.281 9.683)"/><g transform="translate(12.5 12.5)"><path class="b" d="M10.083,16.333h6.25a1.041,1.041,0,1,0,0-2.083h-6.25V10.083h8.333a1.041,1.041,0,1,0,0-2.083H10.083A2.085,2.085,0,0,0,8,10.083V14.25A2.085,2.085,0,0,0,10.083,16.333Z" transform="translate(-8 -8)"/><path class="b" d="M10.781,11.9h1.042a.781.781,0,0,0,0-1.562H10.781a.781.781,0,0,0,0,1.563Z" transform="translate(-6.875 -6.688)"/><path class="b" d="M19.958,18.333h5.989a2.086,2.086,0,0,0,2.084-2.083V12.083A2.085,2.085,0,0,0,25.949,10H17.875a1.042,1.042,0,1,0,0,2.084h8.073V16.25H19.96a1.041,1.041,0,0,0,0,2.083Z" transform="translate(-3.031 -6.875)"/><path class="b" d="M21.114,13.563h1.042a.781.781,0,0,0,0-1.562H21.114a.781.781,0,0,0,0,1.563Z" transform="translate(-1.063 -5.75)"/></g></svg>