<svg xmlns="http://www.w3.org/2000/svg" width="25.789" height="25.789" viewBox="0 0 25.789 25.789"><defs><style>.a{fill:none;}.a,.b{stroke:silver;stroke-linecap:round;stroke-linejoin:round;stroke-width:1.8px;}</style></defs><g transform="translate(-2.111 -2.111)"><line class="a" y1="8" x2="8" transform="translate(11 11)"/><circle class="b" cx="0.5" cy="0.5" r="0.5" transform="translate(11 11)"/><circle class="b" cx="0.5" cy="0.5" r="0.5" transform="translate(18 18)"/><path class="a" d="M5.662,8.594A2.932,2.932,0,0,1,8.594,5.662H9.927a2.932,2.932,0,0,0,2.066-.853l.933-.933a2.932,2.932,0,0,1,4.159,0l.933.933a2.932,2.932,0,0,0,2.066.853h1.333a2.932,2.932,0,0,1,2.932,2.932V9.927a2.932,2.932,0,0,0,.853,2.066l.933.933a2.932,2.932,0,0,1,0,4.159l-.933.933a2.932,2.932,0,0,0-.853,2.066v1.333a2.932,2.932,0,0,1-2.932,2.932H20.084a2.932,2.932,0,0,0-2.066.853l-.933.933a2.932,2.932,0,0,1-4.159,0l-.933-.933a2.932,2.932,0,0,0-2.066-.853H8.594a2.932,2.932,0,0,1-2.932-2.932V20.084a2.932,2.932,0,0,0-.853-2.066l-.933-.933a2.932,2.932,0,0,1,0-4.159l.933-.933a2.932,2.932,0,0,0,.853-2.066V8.594"/></g></svg>