<svg xmlns="http://www.w3.org/2000/svg" width="22.552" height="22.516" viewBox="0 0 22.552 22.516"><defs><style>.a{fill:silver;stroke:silver;stroke-width:0.3px;}</style></defs><g transform="translate(0.15 0.15)"><g transform="translate(8.331 12.033)"><path class="a" d="M13.165,20.405h-3.7a.463.463,0,0,1,0-.926h3.7a1.39,1.39,0,0,0,1.388-1.388V13.463a.463.463,0,0,1,.926,0v4.628A2.317,2.317,0,0,1,13.165,20.405Z" transform="translate(-9 -13)"/></g><g transform="translate(12.033 9.257)"><path class="a" d="M22.719,10.926H13.463a.463.463,0,0,1,0-.926h9.257a.463.463,0,1,1,0,.926Z" transform="translate(-13 -10)"/></g><g transform="translate(0)"><path class="a" d="M7.405,22.216a1.763,1.763,0,0,1-.591-.1L1.27,20.266A1.849,1.849,0,0,1,0,18.513V1.851A1.853,1.853,0,0,1,1.851,0a1.731,1.731,0,0,1,.591.1L7.987,1.949A1.848,1.848,0,0,1,9.257,3.7V20.364A1.853,1.853,0,0,1,7.405,22.216ZM1.851.926a.927.927,0,0,0-.926.926V18.513a.925.925,0,0,0,.637.876L7.116,21.24a.923.923,0,0,0,1.214-.876V3.7a.922.922,0,0,0-.637-.875L2.14.977A.852.852,0,0,0,1.851.926Z" transform="translate(0)"/></g><g transform="translate(1.388)"><path class="a" d="M14.459,7.405A.463.463,0,0,1,14,6.942V2.314A1.39,1.39,0,0,0,12.608.926H1.963a.463.463,0,0,1,0-.926H12.608a2.317,2.317,0,0,1,2.314,2.314V6.942A.463.463,0,0,1,14.459,7.405Z" transform="translate(-1.5)"/></g><g transform="translate(17.587 5.556)"><path class="a" d="M19.463,14.331a.462.462,0,0,1-.328-.79l3.375-3.375L19.135,6.792a.463.463,0,0,1,.654-.654l3.7,3.7a.463.463,0,0,1,0,.654l-3.7,3.7a.464.464,0,0,1-.327.134Z" transform="translate(-19 -6.002)"/></g></g></svg>