<svg xmlns="http://www.w3.org/2000/svg" width="50" height="50" viewBox="0 0 50 50"><defs><style>.a{fill:#e9e6fe;}.b{fill:silver;}.c{fill:#878787;}</style></defs><path class="a" d="M40.625,50H9.375A9.374,9.374,0,0,1,0,40.625V9.375A9.374,9.374,0,0,1,9.375,0h31.25A9.374,9.374,0,0,1,50,9.375v31.25A9.374,9.374,0,0,1,40.625,50Z"/><g transform="translate(13.801 15.625)"><path class="b" d="M25.344,18.333a.782.782,0,0,1-.781-.781V12.864a1.3,1.3,0,0,0-1.3-1.3H15.448a.781.781,0,0,1,0-1.562h7.813a2.867,2.867,0,0,1,2.864,2.864v4.688A.782.782,0,0,1,25.344,18.333Z" transform="translate(-5.551 -10)"/><path class="b" d="M22.437,16.552a.785.785,0,0,1-.553-.228L20.062,14.5a.782.782,0,0,1,.553-1.334h3.645a.782.782,0,0,1,.553,1.334L22.99,16.324A.778.778,0,0,1,22.437,16.552Z" transform="translate(-2.645 -8.219)"/><path class="b" d="M18.594,25h-5.73A2.867,2.867,0,0,1,10,22.136V17.448a.781.781,0,0,1,1.563,0v4.688a1.3,1.3,0,0,0,1.3,1.3h5.73a.781.781,0,0,1,0,1.563Z" transform="translate(-8.176 -6.25)"/><path class="b" d="M13.261,20.052H9.614a.78.78,0,0,1-.552-1.333L10.886,16.9a.782.782,0,0,1,1.1,0l1.823,1.823a.781.781,0,0,1-.553,1.333Z" transform="translate(-8.833 -6.25)"/></g><circle class="c" cx="2.605" cy="2.605" r="2.605" transform="translate(15.103 12.5)"/><path class="c" d="M15.552,12H10.864A2.867,2.867,0,0,0,8,14.864v.52a.782.782,0,0,0,.781.781h8.855a.782.782,0,0,0,.781-.781v-.52A2.868,2.868,0,0,0,15.552,12Z" transform="translate(4.5 6.75)"/><path class="c" d="M21.6,22.542a2.6,2.6,0,1,1,2.6-2.6A2.608,2.608,0,0,1,21.6,22.542Z" transform="translate(10.688 9.75)"/><path class="c" d="M26.969,25.5H18.114a.782.782,0,0,1-.781-.781V24.2A2.867,2.867,0,0,1,20.2,21.334h4.688A2.867,2.867,0,0,1,27.749,24.2v.52A.779.779,0,0,1,26.969,25.5Z" transform="translate(9.75 12)"/></svg>