<svg xmlns="http://www.w3.org/2000/svg" width="50" height="50" viewBox="0 0 50 50"><defs><style>.a{fill:#e9e6fe;}.b{fill:silver;}.c{fill:#878787;}</style></defs><path class="a" d="M40.625,50H9.375A9.374,9.374,0,0,1,0,40.625V9.375A9.374,9.374,0,0,1,9.375,0h31.25A9.374,9.374,0,0,1,50,9.375v31.25A9.374,9.374,0,0,1,40.625,50Z"/><path class="b" d="M19.249,11.333a6.25,6.25,0,1,0,6.25,6.25A6.256,6.256,0,0,0,19.249,11.333Zm-.13,5.469h.261a1.948,1.948,0,0,1,.652,3.786v.381a.781.781,0,0,1-1.562,0v-.261h-.52a.781.781,0,1,1,0-1.562h1.433a.391.391,0,1,0,0-.781h-.261a1.948,1.948,0,0,1-.652-3.786V14.2a.781.781,0,0,1,1.563,0v.261h.52a.781.781,0,1,1,0,1.563H19.119a.39.39,0,1,0,0,.78Z" transform="translate(7.312 6.375)"/><g transform="translate(14.063 12.5)"><path class="c" d="M28.163,14.848a.782.782,0,0,0-.781.781,9.929,9.929,0,0,1-7.608,9.636v-.973a.781.781,0,0,0-1.333-.553L16.4,25.776a.782.782,0,0,0,0,1.1l2.039,2.038a.781.781,0,0,0,1.333-.553V26.875a11.5,11.5,0,0,0,9.17-11.247.781.781,0,0,0-.781-.78Z" transform="translate(-4.965 -4.148)"/><path class="c" d="M18.191,27.317A9.893,9.893,0,0,1,12.2,14.545l.936.541a.782.782,0,0,0,1.145-.878l-.791-2.953a.783.783,0,0,0-.958-.553l-2.953.791a.782.782,0,0,0-.187,1.431l1.436.83a11.463,11.463,0,0,0,6.848,15.039.781.781,0,1,0,.516-1.475Z" transform="translate(-9 -6.495)"/><path class="c" d="M31.173,13.122l-1.68.45A11.56,11.56,0,0,0,19.657,8a11.2,11.2,0,0,0-7.092,2.486.781.781,0,1,0,.978,1.217,9.663,9.663,0,0,1,6.114-2.141A9.978,9.978,0,0,1,27.907,14L27,14.241a.782.782,0,0,0-.187,1.431L29.456,17.2a.78.78,0,0,0,1.067-.286l1.528-2.648A.78.78,0,0,0,31.173,13.122Z" transform="translate(-7.159 -8)"/></g></svg>