<svg xmlns="http://www.w3.org/2000/svg" width="25.346" height="25.3" viewBox="0 0 25.346 25.3"><defs><style>.a{fill:silver;stroke:silver;stroke-width:0.3px;}</style></defs><g transform="translate(0.163 0.15)"><path class="a" d="M12.021,15.073a.521.521,0,0,1-.521-.521V13.77a.521.521,0,1,1,1.042,0v.782A.521.521,0,0,1,12.021,15.073Z" transform="translate(0.479 0.552)"/><path class="a" d="M12.344,14.25H10.521a.521.521,0,1,1,0-1.042h1.823a.781.781,0,0,0,0-1.562h-.521a1.823,1.823,0,0,1,0-3.646h1.823a.521.521,0,1,1,0,1.042H11.823a.781.781,0,0,0,0,1.563h.521a1.823,1.823,0,1,1,0,3.646Z" transform="translate(0.417 0.333)"/><path class="a" d="M12.021,8.824A.521.521,0,0,1,11.5,8.3V7.521a.521.521,0,1,1,1.042,0V8.3A.521.521,0,0,1,12.021,8.824Z" transform="translate(0.479 0.292)"/><path class="a" d="M12.25,17.5a6.25,6.25,0,1,1,6.25-6.25A6.256,6.256,0,0,1,12.25,17.5Zm0-11.458a5.208,5.208,0,1,0,5.208,5.208A5.214,5.214,0,0,0,12.25,6.042Z" transform="translate(0.25 0.208)"/><path class="a" d="M12.021,22.479a.521.521,0,0,1,0-1.042A10.428,10.428,0,0,0,22.438,11.021a.521.521,0,0,1,1.042,0A11.472,11.472,0,0,1,12.021,22.479Z" transform="translate(0.479 0.437)"/><path class="a" d="M22.614,8.385a.523.523,0,0,1-.493-.35,10.406,10.406,0,0,0-9.83-6.994A10.153,10.153,0,0,0,5.867,3.291a.52.52,0,1,1-.652-.811A11.179,11.179,0,0,1,12.291,0,11.451,11.451,0,0,1,23.106,7.694a.522.522,0,0,1-.322.664A.543.543,0,0,1,22.614,8.385Z" transform="translate(0.209 0)"/><path class="a" d="M8.813,22.089a.529.529,0,0,1-.173-.029A11.446,11.446,0,0,1,1,11.266a11.265,11.265,0,0,1,1.987-6.42.52.52,0,1,1,.857.59,10.241,10.241,0,0,0-1.8,5.83,10.4,10.4,0,0,0,6.944,9.81.521.521,0,0,1-.173,1.012Z" transform="translate(0.042 0.193)"/><path class="a" d="M13.6,24.208a.523.523,0,0,1-.369-.152l-2.083-2.083a.521.521,0,0,1,0-.736l2.083-2.083a.521.521,0,1,1,.736.736L12.257,21.6l1.715,1.715a.521.521,0,0,1,0,.736A.516.516,0,0,1,13.6,24.208Z" transform="translate(0.458 0.792)"/><path class="a" d="M4.348,8.162a.521.521,0,0,1-.5-.385L3.171,5.261.655,5.935A.521.521,0,1,1,.386,4.929l3.019-.808a.524.524,0,0,1,.638.368l.808,3.018a.521.521,0,0,1-.368.639.556.556,0,0,1-.135.018Z" transform="translate(0 0.171)"/><path class="a" d="M22.129,8.748a.515.515,0,0,1-.26-.07L19.162,7.116a.521.521,0,0,1,.521-.9l2.255,1.3,1.3-2.255a.521.521,0,1,1,.9.521L22.58,8.488A.522.522,0,0,1,22.129,8.748Z" transform="translate(0.788 0.208)"/></g></svg>