<svg xmlns="http://www.w3.org/2000/svg" width="36.06" height="29.075" viewBox="0 0 36.06 29.075"><defs><style>.a{fill:silver;stroke:silver;stroke-width:0.2px;}</style></defs><g transform="translate(0.1 -50.065)"><g transform="translate(0 50.214)"><path class="a" d="M89.154,196.1a.858.858,0,0,1,.922.772.7.7,0,0,0,1.4,0,2.2,2.2,0,0,0-1.623-2.072v-.1a.7.7,0,0,0-1.4,0v.1a2.2,2.2,0,0,0-1.623,2.072,2.254,2.254,0,0,0,2.323,2.173.785.785,0,1,1-.922.772.7.7,0,1,0-1.4,0,2.2,2.2,0,0,0,1.623,2.072v.1a.7.7,0,1,0,1.4,0v-.1a2.2,2.2,0,0,0,1.623-2.072,2.254,2.254,0,0,0-2.323-2.173.785.785,0,1,1,0-1.545Z" transform="translate(-80.749 -183.929)"/><path class="a" d="M16.809,144.4a8.364,8.364,0,0,0-.584-3.084.7.7,0,1,0-1.3.514,7,7,0,1,1-3.962-3.953.7.7,0,0,0,.511-1.3,8.406,8.406,0,1,0,5.337,7.827Z" transform="translate(0 -129.992)"/><path class="a" d="M361.154,196.1a.858.858,0,0,1,.922.772.7.7,0,0,0,1.4,0,2.2,2.2,0,0,0-1.623-2.072v-.1a.7.7,0,1,0-1.4,0v.1a2.2,2.2,0,0,0-1.623,2.072,2.254,2.254,0,0,0,2.323,2.173.785.785,0,1,1-.922.772.7.7,0,1,0-1.4,0,2.2,2.2,0,0,0,1.623,2.072v.1a.7.7,0,1,0,1.4,0v-.1a2.2,2.2,0,0,0,1.623-2.072,2.254,2.254,0,0,0-2.323-2.173.785.785,0,1,1,0-1.545Z" transform="translate(-333.699 -183.929)"/><path class="a" d="M280.4,136a8.4,8.4,0,1,0,8.4,8.4A8.414,8.414,0,0,0,280.4,136Zm0,15.409a7,7,0,1,1,7-7A7.012,7.012,0,0,1,280.4,151.409Z" transform="translate(-252.949 -129.992)"/><path class="a" d="M160.052,399.838a.7.7,0,1,0-.991.991l.281.281H147.078a.7.7,0,0,0,0,1.4h12.264l-.281.281a.7.7,0,0,0,.99.991l1.476-1.476a.7.7,0,0,0,0-.991Z" transform="translate(-136.126 -375.16)"/><path class="a" d="M148.06,54.362a.7.7,0,1,0,.99-.991l-.281-.281h12.264a.7.7,0,1,0,0-1.4H148.77l.281-.281a.7.7,0,0,0-.991-.991L146.583,51.9a.7.7,0,0,0,0,.991Z" transform="translate(-136.126 -50.214)"/><path class="a" d="M187.985,168.424a.7.7,0,1,0,.5-.205A.706.706,0,0,0,187.985,168.424Z" transform="translate(-174.628 -159.954)"/></g></g></svg>