<svg xmlns="http://www.w3.org/2000/svg" width="50" height="50" viewBox="0 0 50 50"><defs><style>.a{fill:#e9e6fe;}.b{fill:#878787;}.c{fill:silver;}</style></defs><path class="a" d="M40.625,50H9.375A9.374,9.374,0,0,1,0,40.625V9.375A9.374,9.374,0,0,1,9.375,0h31.25A9.374,9.374,0,0,1,50,9.375v31.25A9.374,9.374,0,0,1,40.625,50Z"/><path class="b" d="M31.094,23.25a.782.782,0,0,1-.781-.781A5.475,5.475,0,0,0,24.844,17H17.292v3.386a.783.783,0,0,1-1.32.566l-5.73-5.469a.782.782,0,0,1,0-1.131l5.73-5.469a.782.782,0,0,1,1.32.566v3.386H23.8a8.083,8.083,0,0,1,8.073,8.073v1.563A.784.784,0,0,1,31.094,23.25Z" transform="translate(5.625 4.875)"/><path class="c" d="M22.583,27.8V24.416H16.072A8.08,8.08,0,0,1,8,16.344V14.781a.781.781,0,0,1,1.563,0,5.475,5.475,0,0,0,5.469,5.469h7.552V16.864A.782.782,0,0,1,23.9,16.3l5.73,5.469a.782.782,0,0,1,0,1.131L23.9,28.367A.782.782,0,0,1,22.583,27.8Z" transform="translate(4.5 7.875)"/></svg>