<svg xmlns="http://www.w3.org/2000/svg" width="23.8" height="23.8" viewBox="0 0 23.8 23.8"><defs><style>.a{fill:none;stroke:silver;stroke-linecap:round;stroke-linejoin:round;stroke-width:1.8px;}</style></defs><g transform="translate(-3.1 -3.1)"><path class="a" d="M21.875,9.5V5.375A1.375,1.375,0,0,0,20.5,4H6.75a2.75,2.75,0,0,0,0,5.5h16.5a1.375,1.375,0,0,1,1.375,1.375V15m0,5.5v4.125A1.375,1.375,0,0,1,23.25,26H6.75A2.75,2.75,0,0,1,4,23.25V6.75"/><path class="a" d="M22.25,12v5.5h-5.5a2.75,2.75,0,0,1,0-5.5h5.5" transform="translate(3.75 3)"/></g></svg>