<svg xmlns="http://www.w3.org/2000/svg" xmlns:xlink="http://www.w3.org/1999/xlink" width="337.606" height="207.293" viewBox="0 0 337.606 207.293"><defs><style>.a,.e{fill:#6c63ff;}.a,.h{opacity:0.2;}.b{fill:url(#a);}.c{fill:#fff;}.d{fill:url(#b);}.f{fill:#e0e0e0;}.g{fill:#f5f5f5;}.h,.i{fill:#69f0ae;}</style><linearGradient id="a" x1="0.5" y1="1" x2="0.5" gradientUnits="objectBoundingBox"><stop offset="0" stop-color="gray" stop-opacity="0.251"/><stop offset="0.54" stop-color="gray" stop-opacity="0.122"/><stop offset="1" stop-color="gray" stop-opacity="0.102"/></linearGradient><linearGradient id="b" x1="0" y1="0.5" x2="1" y2="0.5" xlink:href="#a"/></defs><g transform="translate(0 -101.61)"><rect class="a" width="286.004" height="181.923" transform="translate(51.602 126.98)"/><rect class="b" width="327.987" height="186.293" transform="translate(0 101.61)"/><rect class="c" width="320.115" height="154.814" transform="translate(3.501 128.727)"/><rect class="d" width="111.076" height="117.201" transform="translate(25.362 141.847)"/><rect class="e" width="104.958" height="111.953" transform="translate(28.864 144.471)"/><path class="c" d="M332.327,275.563c-.783-6.65-1.958-13.316-4.5-19.535s-6.634-11.937-12.329-15.47a14.1,14.1,0,0,0-6.814-2.35c-4.457-.157-8.577,2.851-10.872,6.673a31.124,31.124,0,0,0-2.029,4.128,9.611,9.611,0,0,0-7.974,8.8,24.5,24.5,0,0,0,3.462,46.26v4.175a24.587,24.587,0,0,0-18.368,23.71v11.373h48.978V331.943a24.587,24.587,0,0,0-18.352-23.71v-4.175a24.5,24.5,0,0,0,18.368-23.717c0-.055,0-.117,0-.172l2.757,6.133c2.624,5.843,5.311,12.109,4.284,18.438C333.964,296.124,333.549,285.463,332.327,275.563Z" transform="translate(-221.674 -86.884)"/><rect class="e" width="320.115" height="23.616" transform="translate(3.501 105.111)"/><rect class="f" width="121.572" height="7.872" transform="translate(176.675 177.266)"/><rect class="g" width="121.572" height="7.872" transform="translate(176.675 210.508)"/><rect class="a" width="71.716" height="7.872" transform="translate(175.805 193.887)"/><rect class="h" width="48.978" height="7.872" transform="translate(175.805 227.122)"/><rect class="i" width="48.978" height="7.872" transform="translate(233.525 227.122)"/></g></svg>